<svg xmlns="http://www.w3.org/2000/svg" xmlns:xlink="http://www.w3.org/1999/xlink" width="1080" zoomAndPan="magnify" viewBox="0 0 810 809.999993" height="1080" preserveAspectRatio="xMidYMid meet" version="1.2"><defs><clipPath id="f4ee6f73e0"><path d="M 0 43 L 755 43 L 755 795.589844 L 0 795.589844 Z M 0 43 "/></clipPath></defs><g id="41727dfd4f"><g clip-rule="nonzero" clip-path="url(#f4ee6f73e0)"><path style=" stroke:none;fill-rule:nonzero;fill:#d4af37;fill-opacity:1;" d="M 171.738281 82.542969 C 178.207031 82.542969 184.101562 86.136719 187.050781 91.886719 L 264.402344 243.570312 C 267.851562 250.253906 266.414062 258.449219 261.023438 263.695312 L 223.210938 300.144531 C 210.917969 312.003906 207.96875 330.695312 216.164062 345.71875 C 270.007812 445.285156 352.03125 526.804688 451.953125 580.070312 C 467.121094 588.195312 485.742188 585.175781 497.53125 572.8125 L 533.761719 534.78125 C 538.9375 529.320312 547.132812 527.882812 553.890625 531.261719 L 706.003906 607.675781 C 714.484375 611.917969 717.863281 622.269531 713.621094 630.753906 C 712.832031 632.261719 711.824219 633.628906 710.675781 634.851562 L 600.113281 750.875 C 596.085938 755.117188 590.121094 756.984375 584.296875 755.835938 C 310.910156 700.339844 96.761719 487.554688 39.609375 214.527344 C 38.386719 208.773438 40.257812 202.808594 44.5 198.710938 L 159.734375 87.359375 C 162.894531 84.195312 167.210938 82.542969 171.667969 82.542969 Z M 171.738281 43.148438 C 157.144531 43.148438 143.054688 48.828125 132.488281 59.035156 L 17.253906 170.316406 C 3.234375 183.832031 -2.804688 203.597656 1.222656 222.648438 C 61.605469 511.058594 287.835938 735.851562 576.679688 794.4375 C 595.65625 798.320312 615.425781 792.066406 628.796875 778.050781 L 739.359375 662.09375 C 760.925781 639.449219 760.0625 603.652344 737.488281 582.085938 C 733.390625 578.273438 728.863281 574.96875 723.832031 572.523438 L 571.71875 496.109375 C 549.503906 484.894531 522.617188 489.566406 505.4375 507.609375 L 469.855469 544.917969 C 377.40625 495.460938 301.421875 419.980469 251.390625 327.890625 L 288.484375 292.019531 C 306.382812 274.695312 310.910156 247.808594 299.554688 225.597656 L 222.203125 73.988281 C 212.5 55.007812 193.015625 43.148438 171.738281 43.148438 "/></g><path style=" stroke:none;fill-rule:nonzero;fill:#d4af37;fill-opacity:1;" d="M 809.664062 350.679688 C 810.382812 363.40625 800.679688 374.332031 787.953125 374.976562 C 775.445312 375.695312 764.664062 366.28125 763.65625 353.84375 C 752.945312 195.621094 627.070312 69.746094 468.847656 58.960938 C 456.125 58.101562 446.5625 47.171875 447.425781 34.449219 C 448.289062 21.726562 459.285156 12.164062 472.011719 13.027344 C 653.164062 25.320312 797.441406 169.523438 809.664062 350.679688 "/><path style=" stroke:none;fill-rule:nonzero;fill:#d4af37;fill-opacity:1;" d="M 489.40625 130.992188 C 476.898438 128.910156 465.039062 137.390625 462.953125 149.972656 C 460.867188 162.40625 469.207031 174.199219 481.644531 176.425781 C 565.824219 190.875 631.816406 256.867188 646.265625 341.046875 C 648.566406 353.628906 660.640625 361.894531 673.152344 359.59375 C 685.441406 357.367188 693.710938 345.648438 691.769531 333.285156 C 673.941406 229.839844 592.925781 148.820312 489.40625 130.992188 "/><path style=" stroke:none;fill-rule:nonzero;fill:#d4af37;fill-opacity:1;" d="M 483.945312 247.738281 C 471.722656 244.289062 459 251.476562 455.546875 263.695312 C 452.167969 275.847656 459.144531 288.496094 471.21875 292.019531 C 499.972656 300.289062 522.402344 322.714844 530.671875 351.398438 C 534.410156 363.546875 547.277344 370.449219 559.496094 366.710938 C 571.285156 363.042969 578.1875 350.679688 574.953125 338.675781 C 562.300781 294.753906 527.9375 260.390625 483.945312 247.738281 "/></g></svg>