<svg xmlns="http://www.w3.org/2000/svg" xmlns:xlink="http://www.w3.org/1999/xlink" width="1080" zoomAndPan="magnify" viewBox="0 0 810 809.999993" height="1080" preserveAspectRatio="xMidYMid meet" version="1.2"><defs><clipPath id="dd9a21f80c"><path d="M 3 652 L 799 652 L 799 752.28125 L 3 752.28125 Z M 3 652 "/></clipPath></defs><g id="58a9cdb323"><g clip-rule="nonzero" clip-path="url(#dd9a21f80c)"><path style=" stroke:none;fill-rule:nonzero;fill:#d4af37;fill-opacity:1;" d="M 748.480469 652.832031 L 53.316406 652.832031 C 51.6875 652.832031 50.0625 652.910156 48.441406 653.070312 C 46.820312 653.230469 45.210938 653.46875 43.613281 653.789062 C 42.015625 654.105469 40.441406 654.5 38.882812 654.972656 C 37.324219 655.445312 35.792969 655.992188 34.285156 656.617188 C 32.78125 657.238281 31.3125 657.9375 29.875 658.703125 C 28.4375 659.472656 27.042969 660.308594 25.691406 661.210938 C 24.335938 662.117188 23.027344 663.085938 21.769531 664.117188 C 20.511719 665.152344 19.304688 666.246094 18.15625 667.394531 C 17.003906 668.546875 15.910156 669.753906 14.878906 671.011719 C 13.84375 672.269531 12.875 673.578125 11.96875 674.929688 C 11.066406 676.285156 10.230469 677.679688 9.460938 679.117188 C 8.695312 680.554688 8 682.023438 7.375 683.527344 C 6.753906 685.03125 6.203125 686.5625 5.730469 688.121094 C 5.257812 689.679688 4.863281 691.257812 4.546875 692.855469 C 4.226562 694.453125 3.988281 696.0625 3.828125 697.683594 C 3.667969 699.304688 3.589844 700.929688 3.589844 702.558594 C 3.589844 704.1875 3.667969 705.808594 3.828125 707.429688 C 3.988281 709.050781 4.226562 710.660156 4.546875 712.257812 C 4.863281 713.855469 5.257812 715.433594 5.730469 716.992188 C 6.203125 718.550781 6.753906 720.082031 7.375 721.585938 C 8 723.089844 8.695312 724.5625 9.460938 725.996094 C 10.230469 727.433594 11.066406 728.828125 11.96875 730.183594 C 12.875 731.539062 13.84375 732.84375 14.878906 734.101562 C 15.910156 735.363281 17.003906 736.566406 18.15625 737.71875 C 19.304688 738.871094 20.511719 739.960938 21.769531 740.996094 C 23.027344 742.027344 24.335938 742.996094 25.691406 743.902344 C 27.042969 744.808594 28.4375 745.644531 29.875 746.410156 C 31.3125 747.179688 32.78125 747.875 34.285156 748.496094 C 35.792969 749.121094 37.324219 749.667969 38.882812 750.140625 C 40.441406 750.613281 42.015625 751.007812 43.613281 751.328125 C 45.210938 751.644531 46.820312 751.882812 48.441406 752.042969 C 50.0625 752.203125 51.6875 752.28125 53.316406 752.28125 L 748.480469 752.28125 C 750.105469 752.28125 751.730469 752.203125 753.351562 752.042969 C 754.972656 751.882812 756.582031 751.644531 758.179688 751.328125 C 759.777344 751.007812 761.355469 750.613281 762.914062 750.140625 C 764.472656 749.667969 766.003906 749.121094 767.507812 748.496094 C 769.011719 747.875 770.484375 747.179688 771.917969 746.410156 C 773.355469 745.644531 774.75 744.808594 776.105469 743.902344 C 777.457031 742.996094 778.765625 742.027344 780.023438 740.996094 C 781.28125 739.960938 782.488281 738.871094 783.640625 737.71875 C 784.792969 736.566406 785.882812 735.363281 786.917969 734.101562 C 787.949219 732.84375 788.917969 731.539062 789.824219 730.183594 C 790.730469 728.828125 791.566406 727.433594 792.332031 725.996094 C 793.101562 724.5625 793.796875 723.089844 794.417969 721.585938 C 795.042969 720.082031 795.589844 718.550781 796.0625 716.992188 C 796.535156 715.433594 796.929688 713.855469 797.25 712.257812 C 797.566406 710.660156 797.804688 709.050781 797.964844 707.429688 C 798.125 705.808594 798.203125 704.1875 798.203125 702.558594 C 798.203125 700.929688 798.125 699.304688 797.964844 697.683594 C 797.804688 696.0625 797.566406 694.453125 797.25 692.855469 C 796.929688 691.257812 796.535156 689.679688 796.0625 688.121094 C 795.589844 686.5625 795.042969 685.03125 794.417969 683.527344 C 793.796875 682.023438 793.101562 680.554688 792.332031 679.117188 C 791.566406 677.679688 790.730469 676.285156 789.824219 674.929688 C 788.917969 673.578125 787.949219 672.269531 786.917969 671.011719 C 785.882812 669.753906 784.792969 668.546875 783.640625 667.394531 C 782.488281 666.246094 781.28125 665.152344 780.023438 664.117188 C 778.765625 663.085938 777.457031 662.117188 776.105469 661.210938 C 774.75 660.308594 773.355469 659.472656 771.917969 658.703125 C 770.484375 657.9375 769.011719 657.238281 767.507812 656.617188 C 766.003906 655.992188 764.472656 655.445312 762.914062 654.972656 C 761.355469 654.5 759.777344 654.105469 758.179688 653.789062 C 756.582031 653.46875 754.972656 653.230469 753.351562 653.070312 C 751.730469 652.910156 750.105469 652.832031 748.480469 652.832031 Z M 748.480469 652.832031 "/></g><path style=" stroke:none;fill-rule:nonzero;fill:#d4af37;fill-opacity:1;" d="M 53.316406 455.089844 L 358.300781 455.089844 C 359.925781 455.089844 361.550781 455.011719 363.171875 454.851562 C 364.792969 454.691406 366.402344 454.453125 368 454.132812 C 369.597656 453.816406 371.175781 453.421875 372.734375 452.949219 C 374.292969 452.476562 375.824219 451.929688 377.328125 451.304688 C 378.832031 450.679688 380.304688 449.984375 381.738281 449.21875 C 383.175781 448.449219 384.570312 447.613281 385.925781 446.710938 C 387.277344 445.804688 388.585938 444.835938 389.84375 443.804688 C 391.101562 442.769531 392.308594 441.675781 393.460938 440.527344 C 394.613281 439.375 395.703125 438.167969 396.738281 436.910156 C 397.769531 435.652344 398.738281 434.34375 399.644531 432.992188 C 400.550781 431.636719 401.386719 430.242188 402.152344 428.804688 C 402.921875 427.367188 403.617188 425.898438 404.238281 424.394531 C 404.863281 422.890625 405.410156 421.355469 405.882812 419.800781 C 406.355469 418.242188 406.75 416.664062 407.070312 415.066406 C 407.386719 413.46875 407.625 411.859375 407.785156 410.238281 C 407.945312 408.617188 408.023438 406.992188 408.023438 405.363281 C 408.023438 403.734375 407.945312 402.109375 407.785156 400.492188 C 407.625 398.871094 407.386719 397.261719 407.070312 395.664062 C 406.75 394.066406 406.355469 392.488281 405.882812 390.929688 C 405.410156 389.371094 404.863281 387.839844 404.238281 386.335938 C 403.617188 384.832031 402.921875 383.359375 402.152344 381.925781 C 401.386719 380.488281 400.550781 379.09375 399.644531 377.738281 C 398.738281 376.382812 397.769531 375.078125 396.738281 373.820312 C 395.703125 372.558594 394.613281 371.355469 393.460938 370.203125 C 392.308594 369.050781 391.101562 367.960938 389.84375 366.925781 C 388.585938 365.894531 387.277344 364.925781 385.925781 364.019531 C 384.570312 363.113281 383.175781 362.277344 381.738281 361.511719 C 380.304688 360.742188 378.832031 360.046875 377.328125 359.425781 C 375.824219 358.800781 374.292969 358.253906 372.734375 357.78125 C 371.175781 357.308594 369.597656 356.910156 368 356.59375 C 366.402344 356.277344 364.792969 356.039062 363.171875 355.878906 C 361.550781 355.71875 359.925781 355.640625 358.300781 355.640625 L 53.316406 355.640625 C 51.6875 355.640625 50.0625 355.71875 48.441406 355.878906 C 46.820312 356.039062 45.210938 356.277344 43.613281 356.59375 C 42.015625 356.910156 40.441406 357.308594 38.882812 357.78125 C 37.324219 358.253906 35.792969 358.800781 34.285156 359.425781 C 32.78125 360.046875 31.3125 360.742188 29.875 361.511719 C 28.4375 362.277344 27.042969 363.113281 25.691406 364.019531 C 24.335938 364.925781 23.027344 365.894531 21.769531 366.925781 C 20.511719 367.960938 19.304688 369.050781 18.15625 370.203125 C 17.003906 371.355469 15.910156 372.558594 14.878906 373.820312 C 13.84375 375.078125 12.875 376.382812 11.96875 377.738281 C 11.066406 379.09375 10.230469 380.488281 9.460938 381.925781 C 8.695312 383.359375 8 384.832031 7.375 386.335938 C 6.753906 387.839844 6.203125 389.371094 5.730469 390.929688 C 5.257812 392.488281 4.863281 394.066406 4.546875 395.664062 C 4.226562 397.261719 3.988281 398.871094 3.828125 400.492188 C 3.667969 402.109375 3.589844 403.734375 3.589844 405.363281 C 3.589844 406.992188 3.667969 408.617188 3.828125 410.238281 C 3.988281 411.859375 4.226562 413.46875 4.546875 415.066406 C 4.863281 416.664062 5.257812 418.242188 5.730469 419.800781 C 6.203125 421.355469 6.753906 422.890625 7.375 424.394531 C 8 425.898438 8.695312 427.367188 9.460938 428.804688 C 10.230469 430.242188 11.066406 431.636719 11.96875 432.992188 C 12.875 434.34375 13.84375 435.652344 14.878906 436.910156 C 15.910156 438.167969 17.003906 439.375 18.15625 440.527344 C 19.304688 441.675781 20.511719 442.769531 21.769531 443.804688 C 23.027344 444.835938 24.335938 445.804688 25.691406 446.710938 C 27.042969 447.613281 28.4375 448.449219 29.875 449.21875 C 31.3125 449.984375 32.78125 450.679688 34.285156 451.304688 C 35.792969 451.929688 37.324219 452.476562 38.882812 452.949219 C 40.441406 453.421875 42.015625 453.816406 43.613281 454.132812 C 45.210938 454.453125 46.820312 454.691406 48.441406 454.851562 C 50.0625 455.011719 51.6875 455.089844 53.316406 455.089844 Z M 53.316406 455.089844 "/><path style=" stroke:none;fill-rule:nonzero;fill:#d4af37;fill-opacity:1;" d="M 53.316406 159.058594 L 748.480469 159.058594 C 749.351562 159.171875 750.226562 159.261719 751.105469 159.328125 C 751.984375 159.394531 752.863281 159.4375 753.742188 159.457031 C 754.625 159.480469 755.503906 159.476562 756.386719 159.449219 C 757.265625 159.421875 758.144531 159.371094 759.023438 159.300781 C 759.898438 159.226562 760.777344 159.128906 761.648438 159.007812 C 762.519531 158.890625 763.390625 158.746094 764.253906 158.582031 C 765.121094 158.414062 765.980469 158.226562 766.835938 158.015625 C 767.6875 157.804688 768.539062 157.570312 769.378906 157.3125 C 770.222656 157.054688 771.058594 156.777344 771.886719 156.476562 C 772.714844 156.175781 773.53125 155.851562 774.34375 155.507812 C 775.152344 155.160156 775.953125 154.796875 776.746094 154.410156 C 777.535156 154.023438 778.316406 153.613281 779.085938 153.183594 C 779.855469 152.757812 780.613281 152.308594 781.359375 151.839844 C 782.105469 151.371094 782.835938 150.882812 783.554688 150.375 C 784.277344 149.867188 784.980469 149.339844 785.671875 148.792969 C 786.363281 148.25 787.042969 147.683594 787.703125 147.105469 C 788.363281 146.523438 789.011719 145.925781 789.640625 145.308594 C 790.269531 144.691406 790.882812 144.0625 791.480469 143.414062 C 792.078125 142.765625 792.65625 142.101562 793.214844 141.421875 C 793.777344 140.742188 794.320312 140.050781 794.84375 139.34375 C 795.367188 138.632812 795.875 137.914062 796.359375 137.179688 C 796.84375 136.445312 797.3125 135.695312 797.757812 134.9375 C 798.203125 134.179688 798.628906 133.40625 799.035156 132.625 C 799.441406 131.84375 799.824219 131.050781 800.1875 130.25 C 800.550781 129.445312 800.890625 128.636719 801.210938 127.8125 C 801.53125 126.992188 801.828125 126.164062 802.105469 125.328125 C 802.382812 124.492188 802.636719 123.648438 802.867188 122.800781 C 803.097656 121.949219 803.304688 121.09375 803.492188 120.234375 C 803.679688 119.371094 803.839844 118.507812 803.980469 117.636719 C 804.121094 116.769531 804.238281 115.894531 804.332031 115.019531 C 804.421875 114.144531 804.492188 113.265625 804.539062 112.386719 C 804.585938 111.507812 804.609375 110.625 804.609375 109.746094 C 804.609375 108.863281 804.585938 107.984375 804.539062 107.105469 C 804.492188 106.226562 804.421875 105.347656 804.332031 104.472656 C 804.238281 103.597656 804.121094 102.722656 803.980469 101.855469 C 803.839844 100.984375 803.679688 100.121094 803.492188 99.257812 C 803.304688 98.398438 803.097656 97.542969 802.867188 96.691406 C 802.636719 95.84375 802.382812 95 802.105469 94.164062 C 801.828125 93.328125 801.53125 92.5 801.210938 91.675781 C 800.890625 90.855469 800.550781 90.046875 800.1875 89.242188 C 799.824219 88.441406 799.441406 87.648438 799.035156 86.867188 C 798.628906 86.085938 798.203125 85.3125 797.757812 84.554688 C 797.3125 83.796875 796.84375 83.046875 796.359375 82.3125 C 795.875 81.578125 795.367188 80.859375 794.84375 80.148438 C 794.320312 79.441406 793.777344 78.75 793.214844 78.070312 C 792.65625 77.390625 792.078125 76.726562 791.480469 76.078125 C 790.882812 75.429688 790.269531 74.800781 789.640625 74.183594 C 789.011719 73.566406 788.363281 72.96875 787.703125 72.386719 C 787.042969 71.808594 786.363281 71.242188 785.671875 70.699219 C 784.980469 70.152344 784.277344 69.625 783.554688 69.117188 C 782.835938 68.609375 782.105469 68.121094 781.359375 67.652344 C 780.613281 67.183594 779.855469 66.734375 779.085938 66.308594 C 778.316406 65.878906 777.535156 65.46875 776.746094 65.082031 C 775.953125 64.695312 775.152344 64.332031 774.34375 63.984375 C 773.53125 63.640625 772.714844 63.316406 771.886719 63.015625 C 771.058594 62.714844 770.222656 62.4375 769.378906 62.179688 C 768.539062 61.921875 767.6875 61.6875 766.835938 61.476562 C 765.980469 61.265625 765.121094 61.078125 764.253906 60.910156 C 763.390625 60.746094 762.519531 60.601562 761.648438 60.484375 C 760.777344 60.363281 759.898438 60.265625 759.023438 60.191406 C 758.144531 60.121094 757.265625 60.070312 756.386719 60.042969 C 755.503906 60.015625 754.625 60.011719 753.742188 60.035156 C 752.863281 60.054688 751.984375 60.097656 751.105469 60.164062 C 750.226562 60.230469 749.351562 60.320312 748.480469 60.433594 L 53.316406 60.433594 C 51.832031 60.628906 50.363281 60.886719 48.90625 61.210938 C 47.445312 61.535156 46.003906 61.925781 44.582031 62.382812 C 43.15625 62.835938 41.757812 63.355469 40.382812 63.9375 C 39.003906 64.515625 37.65625 65.160156 36.335938 65.863281 C 35.019531 66.566406 33.734375 67.324219 32.484375 68.144531 C 31.234375 68.960938 30.023438 69.835938 28.851562 70.765625 C 27.679688 71.691406 26.550781 72.671875 25.46875 73.699219 C 24.386719 74.730469 23.351562 75.804688 22.363281 76.929688 C 21.378906 78.050781 20.445312 79.214844 19.5625 80.421875 C 18.683594 81.628906 17.855469 82.875 17.085938 84.15625 C 16.320312 85.4375 15.609375 86.75 14.957031 88.09375 C 14.308594 89.441406 13.71875 90.8125 13.191406 92.210938 C 12.664062 93.609375 12.199219 95.027344 11.800781 96.46875 C 11.402344 97.910156 11.070312 99.363281 10.800781 100.832031 C 10.535156 102.304688 10.332031 103.785156 10.199219 105.273438 C 10.0625 106.761719 9.996094 108.25 9.996094 109.746094 C 9.996094 111.242188 10.0625 112.730469 10.199219 114.21875 C 10.332031 115.707031 10.535156 117.1875 10.800781 118.65625 C 11.070312 120.128906 11.402344 121.582031 11.800781 123.023438 C 12.199219 124.464844 12.664062 125.882812 13.191406 127.28125 C 13.71875 128.679688 14.308594 130.050781 14.957031 131.398438 C 15.609375 132.742188 16.320312 134.054688 17.085938 135.335938 C 17.855469 136.617188 18.683594 137.863281 19.5625 139.070312 C 20.445312 140.277344 21.378906 141.441406 22.363281 142.5625 C 23.351562 143.6875 24.386719 144.761719 25.46875 145.792969 C 26.550781 146.820312 27.679688 147.800781 28.851562 148.726562 C 30.023438 149.65625 31.234375 150.527344 32.484375 151.347656 C 33.734375 152.167969 35.019531 152.925781 36.335938 153.628906 C 37.65625 154.332031 39.003906 154.972656 40.382812 155.554688 C 41.757812 156.136719 43.15625 156.65625 44.582031 157.109375 C 46.003906 157.566406 47.445312 157.957031 48.90625 158.28125 C 50.363281 158.605469 51.832031 158.863281 53.316406 159.058594 Z M 53.316406 159.058594 "/></g></svg>